<?xml version="1.0" encoding="utf-8"?>
<!-- Generator: Adobe Illustrator 25.4.1, SVG Export Plug-In . SVG Version: 6.00 Build 0)  -->
<svg version="1.1" id="Layer_1" xmlns="http://www.w3.org/2000/svg" xmlns:xlink="http://www.w3.org/1999/xlink" x="0px" y="0px"
	 viewBox="0 0 304.4 84" style="enable-background:new 0 0 304.4 84;" xml:space="preserve">
<style type="text/css">
	.st0{fill:#FFFFFF;}
	.st1{fill-rule:evenodd;clip-rule:evenodd;fill:#FFFFFF;}
	.st2{fill-rule:evenodd;clip-rule:evenodd;fill:url(#SVGID_1_);}
	.st3{fill-rule:evenodd;clip-rule:evenodd;fill:#2E2E2E;}
	.st4{fill:#2E2E2E;}
</style>
<path class="st0" d="M207.8,26.3v13.9c-0.5-1.2-1.1-2.3-1.9-3.2c-1.9-2.1-4.4-3.1-7.6-3.1c-2.1,0-4,0.5-5.7,1.5
	c-1.3,0.8-2.3,1.8-3.1,3l1.4-4.2h-9.6l-2,7.3l-2-7.3h-9.6l0.9,2.7c-0.3-0.3-0.5-0.6-0.8-0.8c-1.7-1.5-4.1-2.2-6.9-2.2
	c-1.8,0-3.5,0.3-5,1c-1,0.4-1.9,1-2.6,1.7l0-1.9l-1.4-0.4c-0.7-0.2-1.4-0.3-2.2-0.3c-0.7,0-1.6,0.1-2.5,0.5l0-0.1h-8.7v7
	c-0.3-2.1-1.2-3.8-2.7-5.1c-1.7-1.5-4.1-2.2-6.9-2.2c-1.8,0-3.5,0.3-5,1c-1.6,0.7-2.8,1.6-3.7,2.9c-0.9,1.3-1.4,2.7-1.4,4.2v2h2.3
	c-1.5,1.3-2.4,3-2.6,5.1h-9.2V27.7H100v29.6h20.5v-2.2c0.1,0.1,0.3,0.3,0.4,0.4c1.6,1.4,3.6,2.1,6,2.1c1.4,0,2.7-0.3,3.8-0.8
	l0.3,0.5h1.2c0,0,0,0,0,0s0,0,0,0h6.3v0h9.1V43.4c0.2-0.2,0.7-0.5,1.8-0.5c0.4,0,0.9,0,1.4,0.1v1h2.3c-1.8,1.4-2.7,3.5-2.7,6
	c0,2.2,0.9,4.1,2.5,5.6c1.6,1.4,3.6,2.1,6,2.1c1.4,0,2.7-0.3,3.8-0.8l0.3,0.5h8.4v-2.8l-0.2-0.4c-0.2-0.4-0.5-1.2-0.5-3.2v-8.1
	l4.9,14.5h7.7l4.4-12.9c0,0.5-0.1,0.9-0.1,1.4v0.5c0,3.4,1.1,6.2,3.2,8.3c2.1,2.1,4.9,3.1,8.2,3.1c1.9,0,3.6-0.4,5.2-1.1
	c1.6-0.7,2.9-1.8,3.8-3.1v3.8h9.1v-31H207.8z"/>
<g>
	<g transform="translate(-10 -10)">
		<circle class="st1" cx="52" cy="52" r="42"/>
		
			<linearGradient id="SVGID_1_" gradientUnits="userSpaceOnUse" x1="21.3875" y1="330.0125" x2="21.3875" y2="329.0125" gradientTransform="matrix(80 0 0 -80 -1659 26413)">
			<stop  offset="0" style="stop-color:#4BC0CE"/>
			<stop  offset="1" style="stop-color:#4BA898"/>
		</linearGradient>
		<circle class="st2" cx="52" cy="52" r="40"/>
		<g>
			<path class="st1" d="M76.8,76.8c13.7-13.7,13.7-35.8,0-49.5c-13.7-13.7-35.8-13.7-49.5,0c-13.7,13.7-13.7,35.8,0,49.5
				C40.9,90.4,63.1,90.4,76.8,76.8L76.8,76.8z M73.9,73.9C86,61.8,86,42.2,73.9,30.1C61.8,18,42.2,18,30.1,30.1s-12.1,31.7,0,43.8
				C42.2,86,61.8,86,73.9,73.9z"/>
			<path class="st1" d="M59.8,73.9c8.2-8.2,8.2-21.5,0-29.7c-8.2-8.2-21.5-8.2-29.7,0s-8.2,21.5,0,29.7
				C38.3,82.1,51.6,82.1,59.8,73.9z M62.6,76.8c-9.8,9.8-25.6,9.8-35.4,0c-9.8-9.8-9.8-25.6,0-35.4c9.8-9.8,25.6-9.8,35.4,0
				C72.4,51.2,72.4,67,62.6,76.8L62.6,76.8z"/>
			<path class="st1" d="M45.6,73.9c4.3-4.3,4.3-11.3,0-15.6c-4.3-4.3-11.3-4.3-15.6,0s-4.3,11.3,0,15.6S41.3,78.2,45.6,73.9z
				 M48.5,76.8c-5.9,5.9-15.4,5.9-21.2,0c-5.9-5.9-5.9-15.4,0-21.2s15.4-5.9,21.2,0S54.3,70.9,48.5,76.8L48.5,76.8z"/>
		</g>
	</g>
</g>
<polygon class="st3" points="107.3,51.1 118.5,51.1 118.5,55.3 102,55.3 102,29.7 107.3,29.7 "/>
<path class="st3" d="M151.1,41.1c-0.7-0.1-1.3-0.1-1.8-0.1c-1.9,0-3.2,0.7-3.8,2v12.4h-5.1v-19h4.8l0.1,2.3c1-1.7,2.4-2.6,4.2-2.6
	c0.6,0,1.1,0.1,1.6,0.2L151.1,41.1L151.1,41.1z"/>
<g>
	<polygon class="st4" points="164.1,55.3 164.1,55.3 164.1,55.3 	"/>
	<path class="st4" d="M169.2,55c-0.5-0.9-0.7-2.3-0.8-4.1v-8.2c0-2.1-0.7-3.8-2.1-5c-1.4-1.2-3.2-1.8-5.6-1.8
		c-1.5,0-2.9,0.3-4.2,0.8c-1.2,0.5-2.2,1.3-2.9,2.2c-0.7,0.9-1,2-1,3.1h5.1c0-0.7,0.2-1.3,0.7-1.7c0.5-0.4,1.2-0.6,2-0.6
		c1,0,1.7,0.3,2.1,0.8c0.5,0.5,0.7,1.2,0.7,2.1v1.1H161c-2.8,0-5,0.6-6.5,1.6s-2.2,2.6-2.2,4.6c0,1.6,0.6,3,1.8,4.1
		c1.2,1.1,2.8,1.6,4.6,1.6c2,0,3.6-0.7,4.8-2.1c0.1,0.7,0.3,1.2,0.5,1.7h5.1V55z M163.4,49.9c-0.3,0.6-0.8,1-1.4,1.3
		c-0.6,0.3-1.3,0.5-2.1,0.5l0,0c-0.8,0-1.4-0.2-1.8-0.6c-0.4-0.4-0.7-0.9-0.7-1.6l0-0.3c0.2-1.8,1.5-2.6,4.1-2.6h1.9V49.9z"/>
</g>
<polygon class="st3" points="179.2,49.1 182.8,36.3 188.1,36.3 181.6,55.3 176.8,55.3 170.4,36.3 175.7,36.3 179.2,49.1 "/>
<path class="st4" d="M206.6,45.4c0-3-0.7-5.3-2.2-7c-1.5-1.6-3.5-2.5-6.1-2.5c-1.7,0-3.3,0.4-4.6,1.2c-1.4,0.8-2.4,2-3.1,3.5
	c-0.7,1.5-1.1,3.2-1.1,5.1v0.5c0,2.8,0.9,5.1,2.6,6.8c1.7,1.7,4,2.6,6.8,2.6c1.6,0,3-0.3,4.3-0.9c1.3-0.6,2.3-1.4,3.1-2.5l-2.5-2.8
	c-1.1,1.4-2.6,2.1-4.6,2.1c-1.3,0-2.3-0.4-3.1-1.1c-0.8-0.8-1.3-1.7-1.5-3h12.1V45.4z M201.7,44h-7.1c0.2-1.3,0.6-2.2,1.2-2.9
	c0.6-0.7,1.4-1,2.5-1v0c1.1,0,1.9,0.3,2.5,0.9c0.6,0.6,0.9,1.5,0.9,2.6V44z"/>
<polygon class="st3" points="214.9,55.3 209.8,55.3 209.8,28.3 214.9,28.3 214.9,55.3 "/>
<path class="st4" d="M137.3,55c-0.5-0.9-0.7-2.3-0.8-4.1v-8.2c0-2.1-0.7-3.8-2.1-5c-1.4-1.2-3.2-1.8-5.6-1.8c-1.5,0-2.9,0.3-4.2,0.8
	c-1.2,0.5-2.2,1.3-2.9,2.2c-0.7,0.9-1,2-1,3.1h5.1c0-0.7,0.2-1.3,0.7-1.7c0.5-0.4,1.2-0.6,2-0.6c1,0,1.7,0.3,2.1,0.8
	c0.5,0.5,0.7,1.2,0.7,2.1v1.1h-2.3c-2.8,0-5,0.6-6.5,1.6c-1.5,1.1-2.2,2.6-2.2,4.6c0,1.6,0.6,3,1.8,4.1c1.2,1.1,2.8,1.6,4.6,1.6
	c2,0,3.6-0.7,4.8-2.1c0.1,0.7,0.3,1.2,0.5,1.7h5.1V55z M131.5,49.9c-0.3,0.6-0.8,1-1.4,1.3c-0.6,0.3-1.3,0.5-2.1,0.5l0,0
	c-0.8,0-1.4-0.2-1.8-0.6c-0.4-0.4-0.7-0.9-0.7-1.6l0-0.3c0.2-1.8,1.5-2.6,4.1-2.6h1.9V49.9z"/>
<path class="st1" d="M255.8,57.2c-2.9,0-5.3-1.1-7.1-3.1c-1.7-2-2.5-4.7-2.5-8v-0.6c0-2.1,0.4-4,1.1-5.6c0.8-1.7,1.9-3,3.4-4
	c1.5-0.9,3.2-1.4,5.1-1.4c2.5,0,4.5,0.8,6.2,2.3c1.6,1.5,2.5,3.5,2.7,5.9l0.1,1.6h-5l-0.1-1.4c-0.1-1.1-0.4-2-1.1-2.6
	c-0.7-0.7-1.6-1-2.7-1c-1.4,0-2.5,0.5-3.2,1.5c-0.8,1.1-1.3,2.7-1.3,4.9v0.6c0,2.1,0.4,3.7,1.3,4.8c0.7,1,1.7,1.4,3.1,1.5h0.2
	c1.1,0,2-0.3,2.7-0.9c0.7-0.6,1-1.2,1.1-2.1l0.1-1.4h5l-0.1,1.6c-0.1,1.4-0.5,2.8-1.4,4c-0.8,1.2-1.9,2.1-3.2,2.7
	C258.7,56.9,257.3,57.2,255.8,57.2z M294.4,57.2c-3,0-5.4-1.1-7.3-3.2c-1.8-2-2.7-4.8-2.7-8.1v-0.4c0-2,0.4-3.9,1.2-5.6
	c0.8-1.7,2-3.1,3.6-4c1.5-1,3.3-1.5,5.2-1.5c3,0,5.4,1.1,7.3,3.2c1.8,2.1,2.7,4.8,2.7,8.1v0.4c0,2.1-0.4,3.9-1.2,5.6
	c-0.8,1.7-2,3.1-3.6,4C298.1,56.7,296.3,57.2,294.4,57.2z M294.4,39.2c-1.4,0-2.5,0.5-3.4,1.6c-1,1.2-1.4,2.8-1.4,4.8v0.4
	c0,1.9,0.5,3.5,1.4,4.7c0.9,1.1,2,1.6,3.5,1.6c1.5,0,2.5-0.5,3.4-1.6c1-1.2,1.4-2.8,1.4-4.8v-0.4c0-1.2-0.2-2.4-0.7-3.4
	c-0.4-1-1-1.7-1.7-2.2C296.1,39.5,295.3,39.2,294.4,39.2z M227.6,56.8V28.2h18.8v4.8h-13.7v6.6h12v4.8h-12V52h13.8v4.8H227.6z
	 M278.1,56.8v-14c0-1.3-0.3-2.3-0.7-2.8c-0.4-0.5-1.2-0.7-2.3-0.7c-1,0-1.8,0.3-2.5,0.9c-0.7,0.6-1.3,1.4-1.7,2.4v14.3h-5.1v-30h5.1
	v9c0.1-0.1,0.3-0.2,0.4-0.2c1.3-0.8,2.8-1.1,4.3-1.1c2.5,0,4.4,0.8,5.7,2.2c1.2,1.4,1.9,3.5,1.9,6.1v14H278.1z"/>
<path class="st3" d="M243.2,43.1h-12v10.4H245v1.8h-15.9V29.7h15.8v1.8h-13.7v9.6h12L243.2,43.1L243.2,43.1z M255.8,53.9
	c1.5,0,2.7-0.4,3.7-1.2c1-0.8,1.5-1.9,1.6-3.2h2c-0.1,1.2-0.4,2.2-1.1,3.2s-1.6,1.7-2.7,2.2c-1.1,0.5-2.3,0.8-3.6,0.8
	c-2.5,0-4.5-0.9-5.9-2.6c-1.5-1.7-2.2-4.1-2.2-7v-0.6c0-1.9,0.3-3.5,1-5c0.7-1.4,1.6-2.6,2.8-3.3c1.2-0.8,2.7-1.2,4.3-1.2
	c2.1,0,3.8,0.6,5.2,1.9c1.4,1.2,2.1,2.9,2.2,4.9h-2c-0.1-1.5-0.6-2.7-1.6-3.6c-1-0.9-2.2-1.4-3.7-1.4c-1.9,0-3.4,0.7-4.4,2.1
	c-1.1,1.4-1.6,3.3-1.6,5.8v0.6c0,2.4,0.5,4.3,1.6,5.7C252.4,53.2,253.9,53.9,255.8,53.9L255.8,53.9z M269.4,39.5
	c0.7-1.1,1.6-2,2.7-2.6c1.1-0.6,2.3-0.9,3.5-0.9c2,0,3.6,0.6,4.6,1.7c1,1.1,1.5,2.9,1.5,5.2v12.5h-2.1V42.8c0-1.7-0.4-3-1.1-3.8
	c-0.7-0.8-1.8-1.2-3.4-1.2c-1.3,0-2.5,0.4-3.5,1.2c-1,0.8-1.7,1.9-2.2,3.3v13h-2.1v-27h2.1L269.4,39.5L269.4,39.5z M285.9,45.5
	c0-1.8,0.4-3.5,1.1-4.9c0.7-1.5,1.7-2.6,3-3.4c1.3-0.8,2.8-1.2,4.4-1.2c2.5,0,4.6,0.9,6.2,2.7c1.6,1.8,2.4,4.1,2.4,7.1v0.4
	c0,1.8-0.4,3.5-1.1,5c-0.7,1.5-1.7,2.6-3,3.4c-1.3,0.8-2.8,1.2-4.4,1.2c-2.5,0-4.6-0.9-6.1-2.7c-1.6-1.8-2.4-4.1-2.4-7.1L285.9,45.5
	L285.9,45.5z M288,46.1c0,2.3,0.6,4.1,1.8,5.6c1.2,1.5,2.7,2.2,4.6,2.2c1.9,0,3.4-0.7,4.6-2.2c1.2-1.5,1.8-3.4,1.8-5.8v-0.4
	c0-1.5-0.3-2.8-0.8-4c-0.5-1.2-1.3-2.1-2.3-2.8c-1-0.7-2.1-1-3.3-1c-1.9,0-3.4,0.7-4.6,2.2c-1.2,1.5-1.8,3.4-1.8,5.8L288,46.1
	L288,46.1z"/>
</svg>
